<svg width="768" height="252" viewBox="0 0 768 252" fill="none" xmlns="http://www.w3.org/2000/svg">
<path opacity="0.3" fill-rule="evenodd" clip-rule="evenodd" d="M84.3831 0L157.68 0C172.306 7.43369 190.285 17.291 210.242 28.539C235.018 42.503 262.991 58.6796 292.129 75.5301L292.13 75.5307C373.538 122.609 464.043 174.949 519.355 198.997C523.944 200.991 528.23 202.806 532.228 204.451C505.084 176.58 460.488 138 416.94 100.8C403.649 89.4468 393.137 79.8071 385.79 71.9397C382.129 68.0198 378.856 64.1208 376.385 60.3675C374.204 57.0553 371.251 51.8281 371.073 45.7723C370.974 42.4259 371.708 38.2005 374.638 33.9847C377.666 29.6271 382.135 26.5883 386.801 24.7036C394.963 21.4054 403.327 21.7506 407.785 22.1273C417.641 22.9603 429.728 26.1345 442.273 30.0271C481.586 42.2247 550.196 69.6856 644.784 107.544C673.293 118.955 704.164 131.31 737.302 144.477C748.409 148.89 758.623 152.767 768 156.148V198.791C752.3 193.649 734.66 187.187 714.918 179.343C680.554 165.689 648.893 153.019 619.939 141.432L619.936 141.431C550.001 113.445 495.856 91.7771 457.546 77.8289C508.173 121.107 564.071 169.577 588.978 199.795C595.225 207.375 601.227 215.772 603.72 223.631C604.948 227.501 606.191 233.819 603.127 240.511C600.828 245.529 596.79 249.351 591.949 252H544.958C544.598 251.895 544.236 251.789 543.874 251.681C531.069 247.879 514.97 241.718 495.338 233.183C436.95 207.798 341.71 152.713 259.527 105.18L259.526 105.179C250.462 99.9363 241.556 94.7854 232.875 89.7763C277.474 128.764 303.985 157.043 315.821 177.063C322.334 188.08 328.211 202.765 320.003 215.968C310.595 231.101 290.479 233.415 278.692 233.415C265.594 233.415 250.659 230.816 236.172 227.391C221.29 223.871 205.116 219.043 188.975 213.69C156.68 202.98 123.09 189.692 97.7883 179.18C87.7314 175.001 75.9499 170.038 63.035 164.597C43.8743 156.525 22.2189 147.402 0 138.231L0 94.1989C30.9751 106.771 61.8683 119.789 87.5896 130.627L87.5928 130.629C100.152 135.921 111.477 140.693 120.977 144.64C145.712 154.918 177.868 167.618 208.263 177.697C223.468 182.74 237.875 187.007 250.466 189.984C258.755 191.945 265.595 193.183 270.969 193.823C270.913 193.728 270.857 193.632 270.8 193.535C260.395 175.935 230.468 144.201 168.115 92.1432C136.913 66.0939 115.54 47.1728 102.669 34.2906C96.4333 28.0489 91.2022 22.2575 88.0197 17.2893C86.6254 15.1123 84.2085 10.9971 83.8177 6.03907C83.6912 4.44255 83.7408 2.34451 84.3831 0ZM768 43.1825C759.19 29.0334 750.784 14.6672 743.911 0.781049C757.76 3.56103 768 13.4397 768 25.2V43.1825ZM555.546 233.089C555.594 233.24 555.57 233.213 555.528 233.034C555.535 233.053 555.54 233.072 555.546 233.089ZM572.045 217.584C572.149 217.586 572.204 217.589 572.206 217.591C572.21 217.593 572.157 217.593 572.045 217.584ZM281.841 194.169C281.854 194.176 281.721 194.208 281.404 194.243C281.669 194.179 281.828 194.162 281.841 194.169ZM420.017 41.6265C420.021 41.6278 420.056 41.6904 420.108 41.8101C420.038 41.685 420.012 41.6252 420.017 41.6265ZM402.444 60.9607C402.181 60.9608 402.037 60.9489 402.031 60.943C402.024 60.9372 402.156 60.9373 402.444 60.9607Z" fill="white" style="fill:white;fill-opacity:1;"/>
</svg>
